<?xml version="1.0" encoding="UTF-8"?>
<svg width="612" height="612" xmlns="http://www.w3.org/2000/svg">
 <g>
  <title>Layer 1</title>
  <g id="svg_2">
   <path fill="#ffffff" id="svg_3" d="m275.399994,295.799988c81.682007,0 147.899017,-66.216995 147.899017,-147.899994c0,-81.681992 -66.21701,-147.899994 -147.899017,-147.899994c-81.682999,0 -147.899994,66.217003 -147.899994,147.899994c0,81.682999 66.216995,147.899994 147.899994,147.899994zm70.061005,-89.195984c-6.729004,22.246002 -35.549011,38.968002 -70.089996,38.968002c-34.542007,0 -63.363007,-16.723007 -70.091003,-38.968002h140.181l0,0zm241.039001,303.395996v20.400024c0,5.633972 -4.565979,10.199951 -10.198975,10.199951h-61.20105v61.200012c0,5.634033 -4.565979,10.200012 -10.198975,10.200012h-20.399994c-5.632996,0 -10.199005,-4.565979 -10.199005,-10.200012v-61.198975h-61.201996c-5.632996,0 -10.199005,-4.56604 -10.199005,-10.200012v-20.401001c0,-5.632996 4.56601,-10.199005 10.199005,-10.199005h61.200989v-61.199982c0,-5.634003 4.56601,-10.200012 10.199005,-10.200012h20.399994c5.632996,0 10.199005,4.56601 10.199005,10.200012v61.199982h61.200989c5.634033,-0.001007 10.200012,4.56601 10.200012,10.199005zm-204,0v20.400024c0,5.418945 1.535004,10.437988 4.015991,14.856995c-30.802979,3.349976 -67.519989,5.541992 -111.115997,5.541992c-142.606995,0 -212.392994,-23.302002 -237.978992,-34.686035c-6.602001,-2.937988 -11.921001,-11.335968 -11.921001,-18.561981v-48.751007c0,-73.056 55.624001,-133.662994 126.598999,-141.779999c2.156998,-0.246979 5.354996,0.677002 7.113007,1.949005c32.725998,23.69101 72.789993,37.830994 116.187988,37.830994s83.463013,-14.139984 116.188019,-37.830994c1.757996,-1.272003 4.957001,-2.195984 7.112976,-1.949005c58.746002,6.719025 106.869019,49.438019 121.744019,105.370026c-4.572021,-2.72403 -9.848022,-4.389008 -15.545013,-4.389008h-20.399994c-16.872986,0 -30.600006,13.725983 -30.600006,30.600006v40.799988h-40.799988c-16.873016,-0.001007 -30.600006,13.725006 -30.600006,30.598999z"/>
  </g>
  <g id="svg_4"/>
  <g id="svg_5"/>
  <g id="svg_6"/>
  <g id="svg_7"/>
  <g id="svg_8"/>
  <g id="svg_9"/>
  <g id="svg_10"/>
  <g id="svg_11"/>
  <g id="svg_12"/>
  <g id="svg_13"/>
  <g id="svg_14"/>
  <g id="svg_15"/>
  <g id="svg_16"/>
  <g id="svg_17"/>
  <g id="svg_18"/>
 </g>
</svg>