<?xml version="1.0" encoding="UTF-8"?>
<svg width="640" height="480" xmlns="http://www.w3.org/2000/svg" xmlns:xlink="http://www.w3.org/1999/xlink">
 <!-- Created with SVG-edit - http://svg-edit.googlecode.com/ -->
 <defs>
  <svg viewBox="0 0 174.239 174.239" y="0px" x="0px" xmlns:xlink="http://www.w3.org/1999/xlink" id="svg_1">
   <g>
    <path d="m87.120003,0c-48.038002,0 -87.120003,39.082001 -87.120003,87.120003s39.082001,87.120003 87.120003,87.120003s87.120003,-39.082001 87.120003,-87.120003s-39.083008,-87.120003 -87.120003,-87.120003zm0,159.304993c-39.802002,0 -72.184993,-32.383003 -72.184993,-72.18499s32.382991,-72.185002 72.184993,-72.185002s72.18499,32.383 72.18499,72.185002s-32.383995,72.18499 -72.18499,72.18499z"/>
    <path d="m120.830002,53.414001c-2.917,-2.917 -7.647003,-2.917 -10.558998,0l-23.151001,23.153999l-23.151001,-23.153999c-2.917004,-2.917 -7.642002,-2.917 -10.559002,0s-2.917,7.641998 0,10.558998l23.150997,23.153l-23.151997,23.153999c-2.917,2.917 -2.917,7.641998 0,10.558998c1.458,1.458 3.368999,2.188004 5.279999,2.188004c1.910999,0 3.824001,-0.729004 5.280003,-2.188004l23.151001,-23.153l23.151001,23.153c1.457993,1.458 3.368996,2.188004 5.279999,2.188004c1.910995,0 3.820999,-0.729004 5.279999,-2.188004c2.917,-2.917 2.917,-7.641998 0,-10.558998l-23.152,-23.153l23.151001,-23.153c2.917,-2.917 2.917,-7.642998 0,-10.559998z"/>
   </g>
   <g/>
   <g/>
   <g/>
   <g/>
   <g/>
   <g/>
   <g/>
   <g/>
   <g/>
   <g/>
   <g/>
   <g/>
   <g/>
   <g/>
   <g/>
  </svg>
 </defs>
 <g>
  <title>Layer 1</title>
  <use fill="#ffffff" x="0" y="0" transform="matrix(0.918279, 0, 0, 0.918279, 0, 0)" id="svg_2" xlink:href="#svg_1"/>
 </g>
</svg>