<?xml version="1.0" encoding="UTF-8"?>
<svg width="339.177" height="339.177" xmlns="http://www.w3.org/2000/svg">
 <g>
  <title>Layer 1</title>
  <g id="svg_5">
   <path fill="#ffffff" id="svg_6" d="m247.244003,169.589996l83.938004,-83.938004c5.332001,-5.327003 7.993988,-11.798004 7.993988,-19.414001c0,-7.613998 -2.668976,-14.083996 -7.993988,-19.413998l-38.826996,-38.830994c-5.32901,-5.328 -11.799011,-7.993 -19.411011,-7.993c-7.617004,0 -14.084991,2.665 -19.417007,7.993l-83.936996,83.938l-83.938995,-83.938c-5.326004,-5.328 -11.797005,-7.993 -19.414001,-7.993c-7.611,0 -14.083,2.665 -19.413998,7.993l-38.829002,38.831001c-5.327,5.326 -7.994,11.799999 -7.994,19.413998c0,7.615997 2.664,14.084 7.994,19.414001l83.937,83.937996l-83.937,83.938004c-5.327,5.331009 -7.994,11.798996 -7.994,19.417007c0,7.609985 2.664,14.082001 7.994,19.410004l38.830001,38.828003c5.330002,5.332001 11.803001,7.993988 19.413998,7.993988c7.616005,0 14.084,-2.669006 19.414001,-7.993988l83.939003,-83.938004l83.944,83.938004c5.328003,5.332001 11.792999,7.993988 19.416992,7.993988c7.611023,0 14.082001,-2.669006 19.411011,-7.993988l38.820007,-38.828003c5.332001,-5.324005 7.993988,-11.800018 7.993988,-19.410004c0,-7.618011 -2.661987,-14.085999 -7.993988,-19.416992l-83.939011,-83.938019z"/>
  </g>
  <g id="svg_7"/>
  <g id="svg_8"/>
  <g id="svg_9"/>
  <g id="svg_10"/>
  <g id="svg_11"/>
  <g id="svg_12"/>
  <g id="svg_13"/>
  <g id="svg_14"/>
  <g id="svg_15"/>
  <g id="svg_16"/>
  <g id="svg_17"/>
  <g id="svg_18"/>
  <g id="svg_19"/>
  <g id="svg_20"/>
  <g id="svg_21"/>
 </g>
</svg>