<?xml version="1.0" encoding="iso-8859-1"?>
<!-- Generator: Adobe Illustrator 16.0.0, SVG Export Plug-In . SVG Version: 6.00 Build 0)  -->
<!DOCTYPE svg PUBLIC "-//W3C//DTD SVG 1.1//EN" "http://www.w3.org/Graphics/SVG/1.1/DTD/svg11.dtd">
<svg version="1.1" id="Capa_1" xmlns="http://www.w3.org/2000/svg" xmlns:xlink="http://www.w3.org/1999/xlink" x="0px" y="0px"
	 width="612px" height="612px" viewBox="0 0 612 612" style="enable-background:new 0 0 612 612;" xml:space="preserve">
<g>
	<path d="M273.053,273.046c75.399,0,136.524-61.124,136.524-136.523S348.454,0,273.053,0c-75.4,0-136.522,61.124-136.522,136.523
		S197.654,273.046,273.053,273.046z M338.347,191.161c-6.209,20.535-32.814,35.971-64.698,35.971
		c-31.885,0-58.489-15.437-64.699-35.971H338.347z M566.878,582.625l-52.115-52.102c16.502-18.348,26.629-42.539,26.629-69.158
		c0-57.199-46.369-103.568-103.57-103.568c-57.199,0-103.568,46.369-103.568,103.568c0,57.201,46.369,103.57,103.568,103.57
		c16.871,0,32.748-4.119,46.824-11.275l55.605,55.594c3.662,3.662,9.654,3.66,13.314,0l13.312-13.312
		C570.54,592.279,570.54,586.287,566.878,582.625z M437.823,527.273c-36.4,0-65.908-29.508-65.908-65.908
		c0-36.398,29.508-65.906,65.908-65.906c36.398,0,65.908,29.508,65.908,65.906C503.731,497.766,474.222,527.273,437.823,527.273z
		 M310.716,461.363c0,16.277,3.188,31.795,8.787,46.113c-14.46,0.613-29.923,0.955-46.45,0.955
		c-131.637,0-196.056-21.51-219.673-32.02c-6.094-2.711-11.004-10.463-11.004-17.133v-45.002
		c0-67.436,51.344-123.381,116.86-130.874c1.991-0.228,4.943,0.624,6.565,1.799c30.208,21.87,67.191,34.92,107.25,34.92
		c40.06,0,77.042-13.051,107.251-34.92c1.621-1.175,4.574-2.027,6.564-1.799c39.754,4.547,74.201,26.995,95.215,58.962
		c-13.807-5.154-28.68-8.109-44.262-8.109C367.735,334.256,310.716,391.271,310.716,461.363z"/>
</g>
<g>
</g>
<g>
</g>
<g>
</g>
<g>
</g>
<g>
</g>
<g>
</g>
<g>
</g>
<g>
</g>
<g>
</g>
<g>
</g>
<g>
</g>
<g>
</g>
<g>
</g>
<g>
</g>
<g>
</g>
</svg>
